<svg width="24" height="23" viewBox="0 0 24 23" fill="none" xmlns="http://www.w3.org/2000/svg">
<mask id="path-1-inside-1_3141_121" fill="white">
<path fill-rule="evenodd" clip-rule="evenodd" d="M16.4417 0.920881C13.5357 -0.353848 10.1214 -0.352158 7.11946 1.2212C4.15177 2.77664 2.21784 5.53758 1.5894 8.61006C1.44626 8.6302 1.30393 8.66752 1.16527 8.7229C1.12141 8.74042 1.07791 8.75975 1.03486 8.78092L0.991956 8.80271C0.0801798 9.28059 -0.265626 10.4184 0.219566 11.3442L0.242792 11.3872C0.513821 11.8741 0.967301 12.1982 1.46894 12.316C1.63946 13.5548 2.02434 14.7876 2.63965 15.9616C5.16008 20.7704 10.692 22.9614 15.6185 21.375C16.1677 22.0131 17.0866 22.225 17.8591 21.8451L17.902 21.8233C18.6815 21.4147 19.0473 20.5237 18.8338 19.6953C22.9596 16.5507 24.3152 10.7423 21.7901 5.92442C21.1867 4.77329 20.4109 3.77217 19.512 2.93696C19.6695 2.48831 19.6577 1.97889 19.4446 1.51437C19.4368 1.49746 19.4288 1.4806 19.4205 1.4638C19.4136 1.44986 19.4066 1.43595 19.3993 1.4221C18.9444 0.554232 17.9207 0.180906 17.0432 0.531383C16.9993 0.548901 16.9558 0.568235 16.9128 0.589402L16.8699 0.611191C16.7091 0.695488 16.5658 0.800305 16.4417 0.920881ZM7.64658 2.22691C10.3055 0.833286 13.3254 0.81504 15.9102 1.91691C15.8345 2.32215 15.89 2.75678 16.0975 3.15264C16.1051 3.16717 16.1128 3.18139 16.1207 3.19563C16.1758 3.29452 16.2384 3.38685 16.3073 3.47193L15.1503 5.29061C13.3557 4.32815 11.1479 4.23772 9.22788 5.24403C6.1279 6.8688 4.95215 10.7374 6.60179 13.8849C8.23855 17.0078 12.0417 18.2473 15.129 16.6795L15.2018 16.642C18.2776 15.0299 19.459 11.2089 17.866 8.075L17.8279 8.00104C17.3884 7.16251 16.7927 6.45976 16.0966 5.91069L17.2493 4.09886C17.667 4.22084 18.1253 4.198 18.5438 4.00451L18.5461 4.00346L18.5559 3.99886L18.5678 3.99318C18.5736 3.9904 18.5794 3.98758 18.5852 3.98473L18.5956 3.97958C18.6061 3.97434 18.6165 3.969 18.6269 3.96353C18.6995 3.92547 18.7686 3.88322 18.8339 3.83723C19.6072 4.57134 20.2759 5.44444 20.7995 6.44358C23.046 10.7297 21.8666 15.8903 18.2342 18.7243C17.6787 18.2417 16.8752 18.1111 16.1878 18.4492L16.1449 18.471C15.4498 18.8353 15.0837 19.5832 15.1639 20.3282C10.773 21.6876 5.87242 19.7205 3.63019 15.4424C3.08776 14.4075 2.74505 13.3216 2.58841 12.2297L2.59159 12.2284C2.63047 12.2125 2.66906 12.1951 2.70728 12.1763C2.72124 12.1694 2.73514 12.1623 2.74899 12.1551C3.60375 11.7071 3.96111 10.679 3.60266 9.78946C3.58449 9.74436 3.56448 9.69961 3.54259 9.65532C3.53569 9.64138 3.52862 9.62747 3.52136 9.61362C3.3302 9.24891 3.03859 8.97153 2.69957 8.79851C3.27429 6.06509 5.00293 3.6125 7.64658 2.22691ZM1.40587 9.88156C1.1277 10.0998 1.03764 10.4959 1.21011 10.825C1.25196 10.9048 1.30583 10.9742 1.36827 11.032C1.59541 11.2423 1.93583 11.2993 2.22189 11.1494C2.33277 11.0912 2.42273 11.0087 2.48879 10.9116C2.63996 10.6893 2.6659 10.3905 2.53084 10.1328C2.52871 10.1287 2.52656 10.1247 2.52436 10.1207L2.52146 10.1154L2.52064 10.1139L2.52014 10.113L2.51763 10.1086L2.5151 10.1042C2.31314 9.75512 1.87423 9.62228 1.51907 9.80842C1.47849 9.82969 1.4407 9.85423 1.40587 9.88156ZM17.0272 2.47924C16.9356 2.14475 17.0817 1.78216 17.397 1.6169C17.4763 1.57534 17.5597 1.5497 17.6438 1.53879C17.9464 1.49952 18.2569 1.65146 18.4088 1.94126C18.432 1.98564 18.4505 2.03124 18.4644 2.07745C18.5664 2.41684 18.4208 2.78959 18.0998 2.95784C18.0263 2.99639 17.9491 3.02126 17.8712 3.03336C17.5629 3.08125 17.243 2.92909 17.088 2.63348C17.0618 2.58333 17.0416 2.53163 17.0272 2.47924ZM16.8374 8.52021C16.4923 7.86175 16.0302 7.30497 15.491 6.86263L13.6519 9.75342C13.7324 9.85211 13.8043 9.96039 13.8658 10.0777L13.8879 10.1213C14.34 11.0388 13.9909 12.1488 13.0934 12.6192L13.0505 12.641C12.1607 13.0785 11.0766 12.7309 10.5872 11.8513L10.564 11.8083C10.0788 10.8826 10.4246 9.7447 11.3363 9.26682L11.3524 9.25851L11.36 9.25462L11.3704 9.24943L11.3793 9.24503C11.8064 9.03497 12.2784 9.00587 12.7078 9.12973L14.5448 6.24226C13.0831 5.49292 11.3051 5.43727 9.75499 6.24973C7.20206 7.58779 6.23381 10.7737 7.59233 13.3657C8.95086 15.9577 12.1217 16.9743 14.6747 15.6363C17.2276 14.2982 18.1959 11.1122 16.8374 8.52021ZM11.5545 11.2891C11.7486 11.6594 12.2016 11.8046 12.5663 11.6135C12.931 11.4223 13.0693 10.9672 12.8752 10.5969C12.6812 10.2266 12.2282 10.0814 11.8635 10.2725C11.4988 10.4637 11.3604 10.9188 11.5545 11.2891ZM16.672 19.4767C16.8449 19.3861 17.0375 19.371 17.2131 19.4197C17.4079 19.4737 17.5817 19.6062 17.6838 19.801C17.7924 20.0081 17.7969 20.2418 17.7161 20.4409C17.6523 20.5978 17.5356 20.7334 17.3749 20.8176C17.2135 20.9022 17.0349 20.9209 16.869 20.8834C16.66 20.8362 16.4713 20.6997 16.3631 20.4932C16.2607 20.2978 16.2508 20.0787 16.318 19.8873C16.3781 19.716 16.4998 19.5669 16.672 19.4767Z"/>
</mask>
<path fill-rule="evenodd" clip-rule="evenodd" d="M16.4417 0.920881C13.5357 -0.353848 10.1214 -0.352158 7.11946 1.2212C4.15177 2.77664 2.21784 5.53758 1.5894 8.61006C1.44626 8.6302 1.30393 8.66752 1.16527 8.7229C1.12141 8.74042 1.07791 8.75975 1.03486 8.78092L0.991956 8.80271C0.0801798 9.28059 -0.265626 10.4184 0.219566 11.3442L0.242792 11.3872C0.513821 11.8741 0.967301 12.1982 1.46894 12.316C1.63946 13.5548 2.02434 14.7876 2.63965 15.9616C5.16008 20.7704 10.692 22.9614 15.6185 21.375C16.1677 22.0131 17.0866 22.225 17.8591 21.8451L17.902 21.8233C18.6815 21.4147 19.0473 20.5237 18.8338 19.6953C22.9596 16.5507 24.3152 10.7423 21.7901 5.92442C21.1867 4.77329 20.4109 3.77217 19.512 2.93696C19.6695 2.48831 19.6577 1.97889 19.4446 1.51437C19.4368 1.49746 19.4288 1.4806 19.4205 1.4638C19.4136 1.44986 19.4066 1.43595 19.3993 1.4221C18.9444 0.554232 17.9207 0.180906 17.0432 0.531383C16.9993 0.548901 16.9558 0.568235 16.9128 0.589402L16.8699 0.611191C16.7091 0.695488 16.5658 0.800305 16.4417 0.920881ZM7.64658 2.22691C10.3055 0.833286 13.3254 0.81504 15.9102 1.91691C15.8345 2.32215 15.89 2.75678 16.0975 3.15264C16.1051 3.16717 16.1128 3.18139 16.1207 3.19563C16.1758 3.29452 16.2384 3.38685 16.3073 3.47193L15.1503 5.29061C13.3557 4.32815 11.1479 4.23772 9.22788 5.24403C6.1279 6.8688 4.95215 10.7374 6.60179 13.8849C8.23855 17.0078 12.0417 18.2473 15.129 16.6795L15.2018 16.642C18.2776 15.0299 19.459 11.2089 17.866 8.075L17.8279 8.00104C17.3884 7.16251 16.7927 6.45976 16.0966 5.91069L17.2493 4.09886C17.667 4.22084 18.1253 4.198 18.5438 4.00451L18.5461 4.00346L18.5559 3.99886L18.5678 3.99318C18.5736 3.9904 18.5794 3.98758 18.5852 3.98473L18.5956 3.97958C18.6061 3.97434 18.6165 3.969 18.6269 3.96353C18.6995 3.92547 18.7686 3.88322 18.8339 3.83723C19.6072 4.57134 20.2759 5.44444 20.7995 6.44358C23.046 10.7297 21.8666 15.8903 18.2342 18.7243C17.6787 18.2417 16.8752 18.1111 16.1878 18.4492L16.1449 18.471C15.4498 18.8353 15.0837 19.5832 15.1639 20.3282C10.773 21.6876 5.87242 19.7205 3.63019 15.4424C3.08776 14.4075 2.74505 13.3216 2.58841 12.2297L2.59159 12.2284C2.63047 12.2125 2.66906 12.1951 2.70728 12.1763C2.72124 12.1694 2.73514 12.1623 2.74899 12.1551C3.60375 11.7071 3.96111 10.679 3.60266 9.78946C3.58449 9.74436 3.56448 9.69961 3.54259 9.65532C3.53569 9.64138 3.52862 9.62747 3.52136 9.61362C3.3302 9.24891 3.03859 8.97153 2.69957 8.79851C3.27429 6.06509 5.00293 3.6125 7.64658 2.22691ZM1.40587 9.88156C1.1277 10.0998 1.03764 10.4959 1.21011 10.825C1.25196 10.9048 1.30583 10.9742 1.36827 11.032C1.59541 11.2423 1.93583 11.2993 2.22189 11.1494C2.33277 11.0912 2.42273 11.0087 2.48879 10.9116C2.63996 10.6893 2.6659 10.3905 2.53084 10.1328C2.52871 10.1287 2.52656 10.1247 2.52436 10.1207L2.52146 10.1154L2.52064 10.1139L2.52014 10.113L2.51763 10.1086L2.5151 10.1042C2.31314 9.75512 1.87423 9.62228 1.51907 9.80842C1.47849 9.82969 1.4407 9.85423 1.40587 9.88156ZM17.0272 2.47924C16.9356 2.14475 17.0817 1.78216 17.397 1.6169C17.4763 1.57534 17.5597 1.5497 17.6438 1.53879C17.9464 1.49952 18.2569 1.65146 18.4088 1.94126C18.432 1.98564 18.4505 2.03124 18.4644 2.07745C18.5664 2.41684 18.4208 2.78959 18.0998 2.95784C18.0263 2.99639 17.9491 3.02126 17.8712 3.03336C17.5629 3.08125 17.243 2.92909 17.088 2.63348C17.0618 2.58333 17.0416 2.53163 17.0272 2.47924ZM16.8374 8.52021C16.4923 7.86175 16.0302 7.30497 15.491 6.86263L13.6519 9.75342C13.7324 9.85211 13.8043 9.96039 13.8658 10.0777L13.8879 10.1213C14.34 11.0388 13.9909 12.1488 13.0934 12.6192L13.0505 12.641C12.1607 13.0785 11.0766 12.7309 10.5872 11.8513L10.564 11.8083C10.0788 10.8826 10.4246 9.7447 11.3363 9.26682L11.3524 9.25851L11.36 9.25462L11.3704 9.24943L11.3793 9.24503C11.8064 9.03497 12.2784 9.00587 12.7078 9.12973L14.5448 6.24226C13.0831 5.49292 11.3051 5.43727 9.75499 6.24973C7.20206 7.58779 6.23381 10.7737 7.59233 13.3657C8.95086 15.9577 12.1217 16.9743 14.6747 15.6363C17.2276 14.2982 18.1959 11.1122 16.8374 8.52021ZM11.5545 11.2891C11.7486 11.6594 12.2016 11.8046 12.5663 11.6135C12.931 11.4223 13.0693 10.9672 12.8752 10.5969C12.6812 10.2266 12.2282 10.0814 11.8635 10.2725C11.4988 10.4637 11.3604 10.9188 11.5545 11.2891ZM16.672 19.4767C16.8449 19.3861 17.0375 19.371 17.2131 19.4197C17.4079 19.4737 17.5817 19.6062 17.6838 19.801C17.7924 20.0081 17.7969 20.2418 17.7161 20.4409C17.6523 20.5978 17.5356 20.7334 17.3749 20.8176C17.2135 20.9022 17.0349 20.9209 16.869 20.8834C16.66 20.8362 16.4713 20.6997 16.3631 20.4932C16.2607 20.2978 16.2508 20.0787 16.318 19.8873C16.3781 19.716 16.4998 19.5669 16.672 19.4767Z" fill="black" stroke="#995AF1" stroke-width="16.0367" mask="url(#path-1-inside-1_3141_121)"/>
</svg>
